<svg xmlns="http://www.w3.org/2000/svg" viewBox="0 0 157.47 157.47"><defs><style>.cls-1{fill:#004b6b;}.cls-2{fill:#fff;}.cls-3{fill:#5b9bb7;}</style></defs><g id="Layer_2" data-name="Layer 2"><g id="Finals"><rect class="cls-1" width="157.47" height="157.47"/><path class="cls-2" d="M116.78,127.5V99.69a24,24,0,0,0-24-24h0v45a6.82,6.82,0,0,0,6.82,6.82Z"/><path class="cls-2" d="M116.78,61.78V54.12a24,24,0,0,0-24-24h0V68.6H110A6.81,6.81,0,0,0,116.78,61.78Z"/><polygon class="cls-3" points="86.81 54.03 86.81 29.98 40.69 29.98 40.69 127.26 64.96 127.26 64.96 99.75 85.86 99.75 85.86 75.7 64.96 75.7 64.96 54.03 86.81 54.03"/></g></g></svg>